<svg width="22" height="26" viewBox="0 0 22 26" fill="none" xmlns="http://www.w3.org/2000/svg">
<path d="M18.7401 13.18C18.6468 13.0874 18.5363 13.0141 18.4147 12.9642C18.2931 12.9144 18.1629 12.8889 18.0315 12.8894C17.9001 12.8899 17.7701 12.9162 17.6489 12.9669C17.5277 13.0176 17.4176 13.0917 17.3251 13.185C17.2325 13.2782 17.1592 13.3888 17.1093 13.5103C17.0595 13.6319 17.034 13.7621 17.0345 13.8935C17.035 14.0249 17.0613 14.1549 17.112 14.2761C17.1627 14.3973 17.2368 14.5074 17.3301 14.6C18.1762 15.4372 18.8479 16.4339 19.3062 17.5325C19.7645 18.6311 20.0004 19.8096 20.0001 21C20.0001 22.22 16.4901 24 11.0001 24C5.51006 24 2.00006 22.22 2.00006 21C1.99848 19.8175 2.22993 18.6463 2.6812 17.5533C3.13247 16.4603 3.79471 15.4669 4.63006 14.63C4.81631 14.4426 4.92085 14.1892 4.92085 13.925C4.92085 13.6608 4.81631 13.4073 4.63006 13.22C4.4427 13.0337 4.18925 12.9292 3.92506 12.9292C3.66088 12.9292 3.40742 13.0337 3.22006 13.22C2.19517 14.2391 1.3828 15.4516 0.830052 16.7871C0.277309 18.1226 -0.00480712 19.5546 6.19678e-05 21C6.19678e-05 24.25 5.67006 26 11.0001 26C16.3301 26 22.0001 24.25 22.0001 21C22.0039 19.5452 21.7176 18.1043 21.1578 16.7616C20.598 15.4188 19.7761 14.2012 18.7401 13.18Z" fill="black"/>
<path d="M11 14C12.3845 14 13.7378 13.5895 14.889 12.8203C16.0401 12.0511 16.9373 10.9579 17.4672 9.67879C17.997 8.3997 18.1356 6.99224 17.8655 5.63437C17.5954 4.2765 16.9287 3.02922 15.9497 2.05026C14.9708 1.07129 13.7235 0.404603 12.3656 0.134506C11.0078 -0.13559 9.6003 0.00303298 8.32122 0.532846C7.04213 1.06266 5.94888 1.95987 5.17971 3.11101C4.41054 4.26216 4 5.61553 4 7C4 8.85652 4.7375 10.637 6.05025 11.9497C7.36301 13.2625 9.14348 14 11 14ZM11 2C11.9889 2 12.9556 2.29325 13.7779 2.84265C14.6001 3.39206 15.241 4.17296 15.6194 5.08659C15.9978 6.00022 16.0969 7.00555 15.9039 7.97545C15.711 8.94536 15.2348 9.83627 14.5355 10.5355C13.8363 11.2348 12.9454 11.711 11.9755 11.9039C11.0055 12.0969 10.0002 11.9978 9.08658 11.6194C8.17295 11.241 7.39206 10.6001 6.84265 9.77785C6.29325 8.95561 6 7.98891 6 7C6 5.67392 6.52678 4.40215 7.46447 3.46447C8.40215 2.52679 9.67392 2 11 2Z" fill="black"/>
</svg>
