<svg width="30" height="30" viewBox="0 0 30 30" fill="none" xmlns="http://www.w3.org/2000/svg">
<path d="M2.94369 23.0558C1.35041 20.6713 0.5 17.8678 0.5 15C0.5 11.1544 2.02767 7.46623 4.74695 4.74695C7.46623 2.02767 11.1544 0.5 15 0.5C17.8678 0.5 20.6713 1.35041 23.0558 2.94369C25.4403 4.53697 27.2988 6.80156 28.3963 9.45109C29.4937 12.1006 29.7809 15.0161 29.2214 17.8288C28.6619 20.6415 27.2809 23.2252 25.253 25.253C23.2252 27.2809 20.6415 28.6619 17.8288 29.2214C15.0161 29.7809 12.1006 29.4937 9.45109 28.3963C6.80156 27.2988 4.53697 25.4403 2.94369 23.0558Z" stroke="black"/>
<path d="M21.5625 19.7719V22.5422C21.5625 22.6546 21.5182 22.7624 21.4392 22.8422C21.3602 22.9221 21.2529 22.9676 21.1406 22.9688H8.4375C8.32518 22.9676 8.21789 22.9221 8.1389 22.8422C8.05992 22.7624 8.01562 22.6546 8.01563 22.5422V19.7719C8.01563 17.536 11.0484 15.7219 14.7891 15.7219C18.5297 15.7219 21.5625 17.536 21.5625 19.7719Z" stroke="black" stroke-width="2" stroke-miterlimit="10" stroke-linecap="round"/>
<path d="M14.7887 12.825C16.4507 12.825 17.798 11.528 17.798 9.92813C17.798 8.32823 16.4507 7.03125 14.7887 7.03125C13.1266 7.03125 11.7793 8.32823 11.7793 9.92813C11.7793 11.528 13.1266 12.825 14.7887 12.825Z" stroke="black" stroke-width="2" stroke-miterlimit="10" stroke-linecap="round"/>
</svg>
