<svg width="26" height="26" viewBox="0 0 26 26" fill="none" xmlns="http://www.w3.org/2000/svg">
<path d="M20.4872 25.9999H5.48112C4.64628 25.9998 3.82249 25.809 3.07261 25.4422C2.32273 25.0754 1.66655 24.5423 1.15414 23.8835C0.641725 23.2246 0.286606 22.4575 0.115871 21.6407C-0.0548647 20.8238 -0.0367073 19.9787 0.168958 19.1699L3.2102 6.75995C3.26497 6.53807 3.39412 6.34164 3.57614 6.20336C3.75816 6.06508 3.98208 5.99329 4.21061 5.99995H20.9674C21.1881 5.98985 21.4059 6.05304 21.5869 6.17967C21.7679 6.3063 21.9018 6.48924 21.9678 6.69995L25.7494 18.8599C26.0079 19.6859 26.0675 20.5612 25.9232 21.4145C25.7789 22.2678 25.4348 23.0749 24.9191 23.7699C24.4118 24.468 23.7448 25.0346 22.9739 25.4225C22.2029 25.8104 21.3503 26.0084 20.4872 25.9999ZM4.96091 7.99995L2.06973 19.6499C1.94099 20.1639 1.93067 20.7005 2.03956 21.219C2.14845 21.7376 2.37371 22.2247 2.69835 22.6435C3.02298 23.0624 3.43853 23.4021 3.91364 23.6371C4.38876 23.8721 4.91104 23.9961 5.44111 23.9999H20.4472C20.9917 24.0008 21.5285 23.8726 22.0138 23.6257C22.499 23.3789 22.9187 23.0205 23.2384 22.5799C23.5673 22.1369 23.7868 21.6224 23.8789 21.0785C23.971 20.5345 23.9332 19.9765 23.7686 19.4499L20.2471 7.99995H4.96091Z" fill="black"/>
<path d="M16.9666 14C16.7012 14 16.4468 13.8946 16.2592 13.7071C16.0716 13.5196 15.9662 13.2652 15.9662 13V5C15.9662 4.20435 15.65 3.44129 15.0871 2.87868C14.5243 2.31607 13.7609 2 12.9649 2C12.169 2 11.4056 2.31607 10.8427 2.87868C10.2799 3.44129 9.96371 4.20435 9.96371 5V13C9.96371 13.2652 9.85831 13.5196 9.67069 13.7071C9.48308 13.8946 9.22862 14 8.9633 14C8.69797 14 8.44352 13.8946 8.2559 13.7071C8.06829 13.5196 7.96289 13.2652 7.96289 13V5C7.96289 3.67392 8.48989 2.40215 9.42795 1.46447C10.366 0.526784 11.6383 0 12.9649 0C14.2916 0 15.5638 0.526784 16.5019 1.46447C17.44 2.40215 17.967 3.67392 17.967 5V13C17.967 13.2652 17.8616 13.5196 17.674 13.7071C17.4863 13.8946 17.2319 14 16.9666 14Z" fill="black"/>
</svg>
