<svg width="22" height="28" viewBox="0 0 22 28" fill="none" xmlns="http://www.w3.org/2000/svg">
<path d="M22 1V27C22 27.2652 21.8946 27.5196 21.7071 27.7071C21.5196 27.8946 21.2652 28 21 28H1C0.734784 28 0.48043 27.8946 0.292893 27.7071C0.105357 27.5196 0 27.2652 0 27V25H2V26H20V2H2V5H0V1C0 0.734784 0.105357 0.48043 0.292893 0.292893C0.48043 0.105357 0.734784 0 1 0H21C21.2652 0 21.5196 0.105357 21.7071 0.292893C21.8946 0.48043 22 0.734784 22 1ZM7.29 18.29L8.71 19.71L13.71 14.71C13.8037 14.617 13.8781 14.5064 13.9289 14.3846C13.9797 14.2627 14.0058 14.132 14.0058 14C14.0058 13.868 13.9797 13.7373 13.9289 13.6154C13.8781 13.4936 13.8037 13.383 13.71 13.29L8.71 8.29L7.29 9.71L10.59 13H0V15H10.59L7.29 18.29Z" fill="black"/>
</svg>
